<?xml version="1.0" encoding="utf-8"?>
<!-- Generator: Adobe Illustrator 24.1.2, SVG Export Plug-In . SVG Version: 6.00 Build 0)  -->
<svg version="1.1" id="Layer_1" xmlns="http://www.w3.org/2000/svg" xmlns:xlink="http://www.w3.org/1999/xlink" x="0px" y="0px"
	 viewBox="0 0 540 150" style="enable-background:new 0 0 540 150;" xml:space="preserve">
<style type="text/css">
	.st0{fill:#5B404D;}
	.st1{fill:#D390A8;}
	.st2{fill:#424242;}
	.st3{fill:#8E8E8E;}
	.st4{fill:#B7B7B7;}
	.st5{fill:#FFFFFF;}
	.st6{fill:#161616;}
</style>
<g>
	<g>
		<path class="st0" d="M171.1,7.2h12.2v25.2H214V7.2h12.2V68H214V42.8h-30.8V68h-12.2V7.2z"/>
		<path class="st0" d="M242.2,3.5c3.7,0,6.6,2.9,6.6,6.6c0,3.7-2.9,6.5-6.6,6.5c-3.7,0-6.5-2.9-6.5-6.5
			C235.7,6.4,238.5,3.5,242.2,3.5z M236.6,23h11.1v45h-11.1V23z"/>
		<path class="st0" d="M258.2,23h11.1v6c3.5-5.1,9.5-7.7,15.6-6.5v10.4c-9.1-1.7-15.6,2.5-15.6,10V68h-11.1V23z"/>
		<path class="st0" d="M310.7,22.1c14.6,0,25.3,11.2,23.5,26.7h-35.7c0.9,6.6,6,11.2,12.3,11.2c5.3,0,8.7-2.8,10.6-6.6H333
			c-3,9.4-11.4,15.5-22.4,15.5c-13.7,0-23.7-9.9-23.7-23.4C286.9,31.9,297,22.1,310.7,22.1z M322.7,41c-1.2-5.3-5.7-10-12-10
			c-6.3,0-10.8,4.6-12,10H322.7z"/>
		<path class="st1" d="M171.1,84.8h28.9c12.8,0,21.6,8.8,21.6,20.3c0,11.5-8.9,20.3-21.6,20.3h-16.7v20.3h-12.2V84.8z M198.7,114.9
			c6.1,0,10.2-4.3,10.2-9.8c0-5.7-4.1-9.9-10.2-9.9h-15.5v19.7H198.7z"/>
		<path class="st1" d="M245.7,119.1c2.7,0,6.1,0.3,10,1v-3.1c0-5.3-3.5-8.4-9-8.4c-5.4,0-8.8,2.5-9.1,7.1h-11.1
			c0.4-9,7.1-15.9,20.2-15.9c12.6,0,20.2,6.6,20.2,18.1v27.8h-11.1v-6.3c-3.8,4.7-9.4,7.2-15.7,7.2c-8.4,0-15-4.4-15-13
			C225,124.5,232.2,119.1,245.7,119.1z M243.2,138.2c7.1,0,11.9-5.4,12.5-10.3c-3.1-0.5-6.3-0.9-9.2-0.9c-7.4,0-10.3,2.3-10.3,5.9
			C236.2,136.5,238.9,138.2,243.2,138.2z"/>
		<path class="st1" d="M276.8,100.6h11.1v6c3.5-5.1,9.5-7.7,15.6-6.5v10.4c-9.1-1.7-15.6,2.5-15.6,10v25.1h-11.1V100.6z"/>
		<path class="st1" d="M315.5,88.3h11.1v12.3h13.9v9.1h-13.9v19c0,6.6,3.9,10.1,13.9,7.3v9.3c-17.7,4.2-25-4.1-25-16.5v-19h-8.1
			v-9.1h8.1V88.3z"/>
		<path class="st1" d="M349.7,100.6h11.1v5.9c3.1-4.3,8.2-6.8,14.3-6.8c10.7,0,18.2,7.7,18.2,18.4v27.5h-11.1v-26.1
			c0-6.2-4.4-10.5-10.7-10.5c-6.2,0-10.6,4.3-10.6,10.6v26h-11.1V100.6z"/>
		<path class="st1" d="M425.3,99.7c14.6,0,25.3,11.2,23.5,26.7H413c0.9,6.6,6,11.2,12.3,11.2c5.3,0,8.7-2.8,10.6-6.6h11.7
			c-3,9.4-11.4,15.5-22.4,15.5c-13.7,0-23.7-9.9-23.7-23.4C401.5,109.6,411.6,99.7,425.3,99.7z M437.3,118.6c-1.2-5.3-5.7-10-12-10
			c-6.3,0-10.8,4.6-12,10H437.3z"/>
		<path class="st1" d="M457.7,100.6h11.1v6c3.5-5.1,9.5-7.7,15.6-6.5v10.4c-9.1-1.7-15.6,2.5-15.6,10v25.1h-11.1V100.6z"/>
		<path class="st1" d="M499.6,131.5c0.5,4,3.6,6.6,9.6,6.6c6.3,0,9-2.2,9-5.1c0-9.8-28.7-0.2-28.7-19.4c0-7.6,7-13.9,19.3-13.9
			c11.6,0,18.2,5.7,19.3,14.9H517c-0.6-3.9-3.7-6.5-8.5-6.5c-5.2,0-8,2.2-8,5.1c0,9.8,28.8-0.2,28.8,19.4c0,7.5-7.1,13.9-20.4,13.9
			c-12.7,0-19.3-5.7-20.4-15H499.6z"/>
	</g>
	<g>
		<g>
			<path class="st0" d="M46.7,4.8H10.7v36.3c11.8,3.5,23.8,6.1,35.9,7.5V4.8z"/>
			<path class="st0" d="M71.1,60.2c-20.3,0-40.6-2.8-60.4-8.4v16.8v12v4.8v60.3h35.9V91.4c4.8,0.5,9.7,0.8,14.5,1l11.7-32.2
				C72.3,60.2,71.7,60.2,71.1,60.2z"/>
		</g>
		<g>
			<path class="st1" d="M95.5,4.8v43.8c12.2-1.4,24.2-3.9,35.9-7.5V4.8H95.5z"/>
			<path class="st1" d="M68.4,92.6c0.9,0,1.8,0,2.7,0c8.2,0,16.3-0.4,24.4-1.2v54.2h35.9V85.3v-3.1V68.5V51.8
				c-16.8,4.8-34,7.5-51.2,8.2L68.4,92.6z"/>
		</g>
	</g>
</g>
</svg>
