<svg width="1471" height="406" viewBox="0 0 1471 406" fill="none" xmlns="http://www.w3.org/2000/svg">
<g clip-path="url(#clip0)">
<path d="M221.399 399.803C216.776 399.814 212.199 398.889 207.943 397.084L59.19 334.483C53.5825 332.118 48.6978 328.316 45.0285 323.461C41.3591 318.605 39.0348 312.868 38.29 306.828L18.949 147.029C18.2279 141.02 19.0995 134.928 21.4764 129.362C23.8533 123.797 27.6518 118.954 32.491 115.32L161.95 17.9891C167.972 13.4878 175.287 11.0516 182.805 11.0431C187.428 11.0322 192.005 11.9571 196.261 13.7621L344.974 76.4051C350.581 78.7703 355.466 82.5723 359.136 87.4276C362.805 92.2829 365.129 98.0199 365.874 104.06L385.258 263.86C385.979 269.869 385.107 275.961 382.731 281.527C380.354 287.092 376.555 291.935 371.716 295.569L242.216 392.855C236.206 397.351 228.905 399.788 221.399 399.803ZM191.114 190.991C190.583 190.983 190.056 191.085 189.566 191.291L98.736 229.475C98.0189 229.773 97.4056 230.276 96.9728 230.921C96.5401 231.565 96.3071 232.324 96.303 233.1L96.389 248.378L96.345 261.838C96.3233 263.346 96.7524 264.826 97.5773 266.088C98.4022 267.35 99.5853 268.338 100.975 268.923L184.266 304.387C185.138 304.819 186.105 305.026 187.077 304.987C189.122 305.006 191.091 304.212 192.551 302.78C194.012 301.348 194.844 299.395 194.865 297.35V297.222L194.909 274.874C194.911 274.096 194.681 273.335 194.247 272.689C193.814 272.043 193.197 271.542 192.476 271.249L138.715 248.749L190.125 227.443C191.546 226.863 192.771 225.887 193.654 224.631C194.536 223.375 195.039 221.892 195.102 220.358L195.058 194.895C195.053 193.854 194.636 192.856 193.898 192.121C193.161 191.385 192.163 190.971 191.121 190.969L191.114 190.991ZM216.994 104.576C215.992 104.554 214.996 104.73 214.062 105.094C213.128 105.458 212.275 106.002 211.552 106.695C210.829 107.389 210.249 108.218 209.846 109.136C209.444 110.053 209.226 111.041 209.205 112.043V112.343L209.148 134.693C209.146 135.471 209.376 136.232 209.81 136.878C210.243 137.524 210.86 138.025 211.581 138.318L265.408 160.838L213.999 182.143C212.578 182.723 211.354 183.699 210.472 184.955C209.59 186.211 209.087 187.695 209.024 189.228L209.068 214.691C209.073 215.213 209.182 215.73 209.387 216.21C209.592 216.69 209.89 217.125 210.264 217.49C210.638 217.855 211.08 218.142 211.566 218.336C212.051 218.529 212.57 218.625 213.092 218.617C213.61 218.605 214.123 218.503 214.607 218.317L305.432 180.143C306.149 179.845 306.762 179.342 307.195 178.697C307.628 178.053 307.861 177.295 307.865 176.518L307.779 161.24L307.823 147.78C307.845 146.272 307.415 144.792 306.591 143.53C305.766 142.268 304.583 141.281 303.193 140.695L219.887 105.223C218.991 104.764 217.993 104.541 216.987 104.576H216.994Z" fill="#FF1B3A"/>
<path d="M446.432 311.045V286.551L508.514 164.691H447.606V136.109H550.492V161.464L487.24 282.419H549.32V311.001H446.432V311.045Z" fill="#FF1B3A"/>
<path d="M646.69 244.873H684.89C685.063 246.612 685.237 249.702 685.335 254.052C685.433 258.402 685.379 262.188 685.204 265.277C684.422 282.592 679.751 294.973 671.192 302.42C662.618 309.893 648.914 313.635 630.079 313.645C610.062 313.645 595.734 309.86 587.095 302.291C578.436 294.729 573.652 282.365 572.651 265.268C572.478 260.221 572.304 253.914 572.206 246.301C572.119 238.732 572.075 230.814 572.075 222.547C572.075 214.28 572.119 206.624 572.206 199.532C572.293 192.44 572.466 186.741 572.651 182.477C573.825 164.81 578.829 152.223 587.662 144.714C596.494 137.231 610.432 133.489 629.476 133.489C648.706 133.489 662.599 137.187 671.154 144.583C679.682 151.978 684.352 164.029 685.166 180.736C685.34 183.085 685.466 187.044 685.466 192.7V211.189C685.466 217.889 685.293 224.24 684.901 230.289H611.147C611.147 236.517 611.234 242.82 611.447 249.214C611.62 255.608 611.838 262.441 612.012 269.614C612.185 275.052 613.665 278.924 616.362 281.273C619.059 283.622 623.628 284.754 630.067 284.754C635.896 284.754 640.029 283.58 642.467 281.273C644.905 278.966 646.295 274.965 646.693 269.309C646.866 266.393 646.993 263.001 646.993 259.129C646.993 255.257 646.908 250.531 646.69 244.873ZM629.505 162.385C623.111 162.385 618.629 163.517 616.105 165.735C613.581 167.953 612.233 171.609 612.015 176.655C611.842 181.31 611.668 185.834 611.57 190.222C611.483 194.572 611.439 198.922 611.439 203.186H646.987V186.699C647.063 183.346 646.963 179.991 646.687 176.648C646.696 174.619 646.3 172.608 645.524 170.733C644.747 168.858 643.604 167.157 642.163 165.728C639.555 163.513 635.334 162.385 629.505 162.385Z" fill="#FF1B3A"/>
<path d="M714.34 311.05V136.156H753.104V154.516H760.666C764.064 148.494 768.618 143.203 774.066 138.947C778.939 135.335 785.812 133.547 794.775 133.547C807.392 133.547 817.007 137.1 823.62 144.205C830.234 151.31 833.54 163.115 833.54 179.618V311.094H795.087V176.395C795.087 166.694 789.548 161.835 778.468 161.82C773.355 161.928 768.331 163.177 763.762 165.474C759.177 167.391 755.407 170.852 753.104 175.256V311.085H714.34V311.05Z" fill="#FF1B3A"/>
<path d="M867.046 108.483V77.8989H907.546V108.483H867.046ZM867.916 311.045V136.153H906.369V311.045H867.916Z" fill="#FF1B3A"/>
<path d="M1011.35 313.7C989.994 313.7 974.694 310.002 965.454 302.606C956.215 295.21 951.604 282.579 951.62 264.714L951.32 165.296H935.002V136.154H952.188V86.6001H992.429L991.559 136.154H1023.93V165.3H990.385L990.95 269.365C990.95 275.593 992.429 279.765 995.474 281.896C998.474 284.027 1003.87 285.117 1011.66 285.117C1014.36 285.117 1016.92 285.073 1019.22 284.986C1021.57 284.899 1024.18 284.726 1027.1 284.541V312.211C1024.71 312.785 1022.28 313.178 1019.83 313.385C1017.27 313.57 1014.44 313.7 1011.35 313.7Z" fill="#FF1B3A"/>
<path d="M1122.99 244.873H1161.19C1161.36 246.612 1161.54 249.702 1161.63 254.052C1161.73 258.402 1161.68 262.188 1161.5 265.277C1160.72 282.592 1156.05 294.973 1147.49 302.42C1138.92 309.893 1125.21 313.635 1106.38 313.645C1086.36 313.645 1072.03 309.86 1063.39 302.291C1054.74 294.729 1049.95 282.365 1048.95 265.268C1048.78 260.221 1048.6 253.914 1048.51 246.301C1048.42 238.732 1048.38 230.814 1048.38 222.547C1048.38 214.28 1048.42 206.624 1048.51 199.532C1048.59 192.44 1048.77 186.741 1048.95 182.477C1050.13 164.81 1055.13 152.223 1063.96 144.714C1072.79 137.231 1086.73 133.489 1105.77 133.489C1125 133.489 1138.9 137.187 1147.45 144.583C1155.98 151.983 1160.68 164.031 1161.46 180.736C1161.64 183.085 1161.76 187.044 1161.76 192.7V211.189C1161.76 217.889 1161.59 224.24 1161.2 230.289H1087.44C1087.44 236.517 1087.53 242.82 1087.74 249.214C1087.92 255.608 1088.13 262.441 1088.31 269.614C1088.48 275.052 1089.96 278.924 1092.66 281.273C1095.36 283.622 1099.92 284.754 1106.36 284.754C1112.19 284.754 1116.33 283.58 1118.76 281.273C1121.2 278.966 1122.59 274.965 1122.99 269.309C1123.16 266.393 1123.29 263.001 1123.29 259.129C1123.29 255.257 1123.16 250.531 1122.99 244.873ZM1105.76 162.385C1099.36 162.385 1094.88 163.517 1092.36 165.735C1089.84 167.953 1088.49 171.609 1088.27 176.655C1088.1 181.31 1087.92 185.834 1087.82 190.222C1087.74 194.572 1087.69 198.922 1087.69 203.186H1123.24V186.699C1123.31 183.346 1123.21 179.991 1122.94 176.648C1122.95 174.619 1122.55 172.608 1121.77 170.733C1121 168.858 1119.86 167.157 1118.41 165.728C1115.86 163.513 1111.59 162.385 1105.76 162.385V162.385Z" fill="#FF1B3A"/>
<path d="M1191.21 265.277C1191.03 260.23 1190.86 253.923 1190.76 246.31C1190.67 238.741 1190.63 230.823 1190.63 222.556C1190.63 214.289 1190.68 206.633 1190.76 199.541C1190.85 192.449 1191.02 186.75 1191.21 182.486C1192.38 164.819 1197.38 152.232 1206.22 144.723C1215.05 137.24 1228.98 133.498 1248.03 133.498C1267.07 133.498 1280.92 137.138 1289.58 144.418C1298.24 151.684 1302.93 163.818 1303.72 180.702C1303.89 184.183 1303.98 188.228 1303.85 192.797C1303.76 197.365 1303.59 200.323 1303.4 201.671H1265.21C1265.38 198.364 1265.51 194.145 1265.51 189.011C1265.51 183.877 1265.42 179.745 1265.21 176.611C1265.36 172.643 1263.95 168.774 1261.3 165.822C1258.85 163.473 1254.47 162.341 1248.03 162.341C1241.63 162.341 1237.15 163.429 1234.63 165.562C1232.1 167.695 1230.76 171.391 1230.54 176.656C1230.15 188.491 1229.88 199.409 1229.8 209.286C1229.71 219.205 1229.71 228.965 1229.8 238.564C1229.88 248.163 1230.13 258.517 1230.54 269.626C1230.71 275.064 1232.19 278.936 1234.89 281.285C1237.59 283.634 1242.15 284.766 1248.59 284.766C1254.82 284.766 1259.08 283.505 1261.43 280.985C1264.05 277.682 1265.39 273.541 1265.21 269.326C1265.38 266.237 1265.51 262.756 1265.51 258.973C1265.51 255.19 1265.42 250.49 1265.21 244.834H1303.41C1303.58 246.573 1303.75 249.663 1303.85 254.013C1303.95 258.363 1303.9 262.149 1303.72 265.238C1302.94 282.553 1298.27 294.934 1289.71 302.381C1281.13 309.854 1267.43 313.596 1248.6 313.606C1228.58 313.606 1214.25 309.821 1205.61 302.252C1196.95 294.728 1192.15 282.403 1191.21 265.277Z" fill="#FF1B3A"/>
<path d="M1334.91 311.046V77.855H1374.24V154.512H1381.24C1384.62 148.517 1389.12 143.231 1394.5 138.943C1399.25 135.331 1406.2 133.543 1415.34 133.543C1427.96 133.543 1437.43 137.096 1443.75 144.201C1450.08 151.306 1453.43 163.111 1453.8 179.616L1454.1 311.091H1415.05L1414.48 176.44C1414.67 172.397 1413.32 168.431 1410.7 165.346C1408.35 162.997 1404.47 161.865 1399.04 161.865C1393.92 161.882 1388.87 163.135 1384.34 165.519C1379.98 167.554 1376.44 171.003 1374.28 175.305V311.135H1334.92L1334.91 311.046Z" fill="#FF1B3A"/>
</g>
<defs>
<clipPath id="clip0">
<rect width="1471" height="406" fill="white"/>
</clipPath>
</defs>
</svg>
